<svg id="Layer_1" data-name="Layer 1" xmlns="http://www.w3.org/2000/svg" viewBox="0 0 283.74 300.13"><defs><style>.cls-1{fill:#fff;}</style></defs><path class="cls-1" d="M142,236.7,73,185.7q-34.58-25.53-69.16-51c-2.69-2-3.87-4-3.79-7.4C.42,111-.21,94.59,1,78.34c3-40.76,39.22-75.7,80-77.9C86.3.15,91.64,0,97,0q90,0,180,0h6.61V126a32.06,32.06,0,0,1-3.5-2c-12.21-9-24.35-18-36.63-26.93a7.51,7.51,0,0,1-3.58-7c.2-13.5.08-27,.08-40.5V44c-2.08-.1-3.7-.23-5.32-.24q-73.74,0-147.48,0c-23,0-42.82,19.66-43.15,42.57-.09,6.84-.17,13.68.1,20.5a7.15,7.15,0,0,0,2.46,4.8c30.73,22.88,61.57,45.59,92.31,68.45,2.34,1.75,3.88,1.69,6-.07,4-3.25,8.17-6.26,12.4-9.46L194,197.66Z"/><path class="cls-1" d="M126.5,129.51l-36.63-27.1c17.52-13.16,34.51-25.91,51.87-39,5.31,3.89,10.65,7.78,16,11.71Q219,120.39,280.24,165.72c1.63,1.21,3.4,3.58,3.4,5.42,0,16.81.48,33.68-.73,50.43-3,41.3-39.38,76.38-80.81,78-20.13.8-40.31.44-60.46.46q-67.74.09-135.46,0H.43V174c1.37.8,2.53,1.34,3.54,2.08,12.2,9,24.31,18.1,36.59,27a7.52,7.52,0,0,1,3.47,7c-.16,15.15-.07,30.31-.07,46.25h5.5q73.23,0,146.46,0a43.9,43.9,0,0,0,44-44.22c0-2.5-.37-5.06.06-7.49,1.85-10.56-2.61-17-11.34-23.13-27.91-19.64-55.14-40.25-82.52-60.63-3-2.26-5.17-2.68-8.14,0C134.51,123.87,130.59,126.44,126.5,129.51Z"/></svg>