<svg class="opacity-100 dark:opacity-0" width="33" height="20" viewBox="0 0 33 20" fill="#000" xmlns="http://www.w3.org/2000/svg"><path d="M1.28375 19.41l-.49-.77c.42-1.6333.95667-3.57 1.61-5.81.65333-2.2867 1.35333-4.55 2.1-6.79.79333-2.28667 1.56333-4.27 2.31-5.9500041H15.3538C14.9338 2.09666 14.4904 4.26667 14.0238 6.6 13.5571 8.88666 13.1371 11.15 12.7638 13.39 12.4371 15.5833 12.1571 17.59 11.9238 19.41H1.28375zM31.69.0899959 32.18.859998C31.76 2.54 31.2233 4.5 30.57 6.74 29.9167 8.98 29.2167 11.2433 28.47 13.53 27.7233 15.77 26.9533 17.73 26.16 19.41H17.69C18.0167 17.9167 18.3433 16.33 18.67 14.65 18.9967 12.9233 19.3 11.22 19.58 9.54 19.9067 7.81333 20.1867 6.15667 20.42 4.57 20.7 2.93666 20.91 1.44333 21.05.0899959H31.69z"></path></svg>